<?xml version="1.0" encoding="UTF-8" standalone="no"?>
<!-- Created with Inkscape (http://www.inkscape.org/) -->

<svg
   xmlns:dc="http://purl.org/dc/elements/1.1/"
   xmlns:cc="http://creativecommons.org/ns#"
   xmlns:rdf="http://www.w3.org/1999/02/22-rdf-syntax-ns#"
   xmlns:svg="http://www.w3.org/2000/svg"
   xmlns="http://www.w3.org/2000/svg"
   xmlns:sodipodi="http://sodipodi.sourceforge.net/DTD/sodipodi-0.dtd"
   xmlns:inkscape="http://www.inkscape.org/namespaces/inkscape"
   width="50"
   height="50"
   viewBox="0 0 13.229167 13.229167"
   version="1.1"
   id="svg951"
   inkscape:version="0.92.4 5da689c313, 2019-01-14"
   sodipodi:docname="picons-logo.svg">
  <defs
     id="defs945" />
  <sodipodi:namedview
     id="base"
     pagecolor="#ffffff"
     bordercolor="#666666"
     borderopacity="1.0"
     inkscape:pageopacity="0.0"
     inkscape:pageshadow="2"
     inkscape:zoom="7.9195959"
     inkscape:cx="31.870296"
     inkscape:cy="17.764466"
     inkscape:document-units="px"
     inkscape:current-layer="layer1"
     showgrid="true"
     units="px"
     inkscape:window-width="1920"
     inkscape:window-height="1011"
     inkscape:window-x="0"
     inkscape:window-y="27"
     inkscape:window-maximized="1">
    <inkscape:grid
       type="xygrid"
       id="grid1496"
       spacingx="0.26458333" />
  </sodipodi:namedview>
  <metadata
     id="metadata948">
    <rdf:RDF>
      <cc:Work
         rdf:about="">
        <dc:format>image/svg+xml</dc:format>
        <dc:type
           rdf:resource="http://purl.org/dc/dcmitype/StillImage" />
        <dc:title></dc:title>
      </cc:Work>
    </rdf:RDF>
  </metadata>
  <g
     inkscape:label="Layer 1"
     inkscape:groupmode="layer"
     id="layer1"
     transform="translate(0,-283.77083)">
    <path
       style="opacity:1;fill:#b4b4f5;fill-opacity:1;fill-rule:nonzero;stroke:none;stroke-width:120;stroke-linecap:round;stroke-linejoin:round;stroke-miterlimit:4;stroke-dasharray:none;stroke-opacity:1"
       d="M 25,0 A 25,25 0 0 0 0,25 25,25 0 0 0 19.941406,49.478516 V 28.873047 c -13.2554158,-2.697824 -13.2552846,-0.04838 0,-2.746094 V 15 C 21.97065,7.5000002 22.236328,3.75 22.486328,3.75 c 0.25,0 0.484322,3.7500002 2.455078,11.25 v 10 c 5,-5.000012 6.074786,-5.460246 5,-15 19.999999,10.000025 19.999999,25.000013 0,35 0.965587,-9.280327 0,-9.999988 -5,-15 V 49.996094 A 25,25 0 0 0 25,50 25,25 0 0 0 50,25 25,25 0 0 0 25,0 Z m -5.058594,49.478516 a 25,25 0 0 0 2.34961,0.365234 25,25 0 0 1 -2.34961,-0.365234 z m 2.47461,0.382812 a 25,25 0 0 0 2.289062,0.123047 25,25 0 0 1 -2.289062,-0.123047 z"
       transform="matrix(0.26458334,0,0,0.26458334,0,283.77083)"
       id="path1500"
       inkscape:connector-curvature="0" />
  </g>
</svg>
